<svg viewBox="0 0 385 263"   stroke="#546a90" fill="transparent" xmlns="http://www.w3.org/2000/svg">
<path d="M133.442 174.103L134.04 184.381L142.934 180.896M161.054 181.3C161.054 181.3 170.833 177.131 180.292 181.688M209.792 180.359C217.249 185.617 216.427 205.756 216.427 205.756M154.218 157.472L149.01 168.283L156.836 168.168M124.643 199.279L128.579 208.39M142.573 232.337L134.014 228.213M149.369 207.861L147.534 204.757M138.542 201.535L143.664 200.118M144.026 224.712L147.13 222.877M157.859 222.495L161.196 221.328M156.905 233.691L154.203 232.389M172.204 239.951L172.606 236.814M186.908 220.95L189.779 218.448M177.083 206.782L169.958 208.9M163.386 202.958L161.919 194.482M148.406 187.972L151.845 178.529M189.591 236.117L188.424 232.78M198.771 221.67L196.036 218.132M199.708 209.356L203.848 201.916M209.618 214.13L209.332 225.092L218.611 217.352"  stroke-width="1.2"/>
<path d="M195.914 240.273L204.857 240.142M170.284 246.241L179.744 250.798M216.779 199.265L221.119 190.256M216.128 200.617L209.523 192.44"  stroke-width="1.2"/>
<path d="M157.954 244.186C157.954 244.186 201.75 256.96 214.958 212.263M157.954 244.186C157.954 244.186 215.284 249.604 195.473 195.106M157.954 244.186C157.954 244.186 208.612 236.955 173.664 202.36M157.954 244.186C157.954 244.186 157.59 243.968 156.941 243.548M159.423 161.645C95.7818 200.906 148.787 238.258 156.941 243.548M161.726 242.118C161.726 242.118 144.894 222.91 171.714 191.43M155.948 183.835C110.476 209.104 156.941 243.548 156.941 243.548M156.941 243.548C156.941 243.548 128.392 226.06 153.341 204.224"  stroke-width="1.2"/>
<path d="M328.056 218V171.5M343.056 74C352.056 74 353.056 92 353.056 92L356.056 215M343.056 74C339.943 74 335.248 76.2731 333.056 79.2469M343.056 74L341.056 107C341.056 107 341.056 118.25 344.056 132C347.056 145.75 337.056 145.5 337.556 158C338.056 170.5 343.556 216.5 343.556 216.5M354.446 149C354.446 149 365.056 152 367.056 145C369.056 138 368.056 103.5 370.056 98C372.055 92.5 376.556 91 380.056 99C383.556 107 383.556 121 383.556 121C383.556 121 381.556 151.5 378.056 158C374.556 164.5 356.056 163.5 356.056 163.5M328.056 171.5L326.556 93C326.556 93 328.909 84.8706 333.056 79.2469M328.056 171.5C328.056 171.5 315.056 170.5 313.056 165.5C311.056 160.5 309.056 153 309.056 153V132C309.056 132 303.142 122.323 298.607 128M327.056 189.5C304.056 194 294.556 179.5 294.556 179.5C294.556 179.5 291.056 169 294.556 141.5C295.489 134.164 296.957 130.066 298.607 128M335.556 216.5C335.556 216.5 338.056 193.5 333.056 165.5C328.056 137.5 341.056 143 334.556 114.5C328.056 86 333.056 79.2469 333.056 79.2469M350.056 216.5C350.056 216.5 346.056 170.5 347.556 161C349.056 151.5 353.056 139.5 350.556 126.5C348.056 113.5 353.312 102.5 353.312 102.5M326.556 183C326.556 183 307.056 187 300.556 176.5C294.056 166 298.607 155.5 298.607 155.5V128"  stroke-width="1.5"/>
<path d="M309.056 131.5C309.056 144 309.556 149 308.056 160.5C306.556 172 313.556 174 313.556 174L327.556 176.5M354.556 155.5C354.556 155.5 358.056 154.5 365.056 154.5C372.056 154.5 374.556 141.5 374.556 141.5C371.594 113.09 370.935 98.726 373.056 93.5M354.556 160.5C354.556 160.5 381.056 162 381.056 141.5"  stroke-width="1.5"/>
<path d="M38.9988 202.591V170.755M28.7288 104C22.5669 104 21.8822 116.324 21.8822 116.324L19.8282 200.537M28.7288 104C30.8602 104 34.0741 105.556 35.5754 107.592M28.7288 104L30.0981 126.594C30.0981 126.594 30.0981 134.296 28.0442 143.71C25.9902 153.125 32.8368 152.953 32.4945 161.512C32.1521 170.07 28.3865 201.564 28.3865 201.564M20.9304 155.35C20.9304 155.35 13.6662 157.404 12.2969 152.611C10.9276 147.818 11.6123 124.198 10.243 120.432C8.87369 116.666 5.79263 115.639 3.39632 121.117C0.999999 126.594 1 136.179 1 136.179C1 136.179 2.36936 157.061 4.76564 161.512C7.16192 165.962 19.8282 165.277 19.8282 165.277M38.9988 170.755L40.0257 117.009C40.0257 117.009 38.4146 111.443 35.5754 107.592M38.9988 170.755C38.9988 170.755 47.8993 170.07 49.2687 166.647C50.638 163.223 52.0073 158.088 52.0073 158.088V143.71C52.0073 143.71 56.0563 137.085 59.1613 140.972M39.6835 183.078C55.4307 186.159 61.935 176.232 61.935 176.232C61.935 176.232 64.3313 169.043 61.935 150.215C61.2957 145.192 60.291 142.386 59.1613 140.972M33.8638 201.564C33.8638 201.564 32.1521 185.817 35.5754 166.647C38.9988 147.476 30.0981 151.242 34.5484 131.729C38.9988 112.216 35.5754 107.592 35.5754 107.592M23.9362 201.564C23.9362 201.564 26.6748 170.07 25.6478 163.566C24.6208 157.061 21.8822 148.845 23.5939 139.945C25.3055 131.044 21.7069 123.513 21.7069 123.513M40.0257 178.628C40.0257 178.628 53.3767 181.367 57.827 174.178C62.2773 166.989 59.1613 159.8 59.1613 159.8V140.972"  stroke-width="1.2"/>
<path d="M52.0073 143.368C52.0073 151.926 51.665 155.35 52.692 163.223C53.719 171.097 48.9264 172.466 48.9264 172.466L39.3411 174.178M20.8552 159.8C20.8552 159.8 18.4589 159.115 13.6663 159.115C8.87363 159.115 7.16199 150.215 7.16199 150.215C9.18963 130.764 9.64111 120.929 8.18896 117.351M20.8552 163.223C20.8552 163.223 2.71167 164.25 2.71167 150.215"  stroke-width="1.2"/>
<path d="M78 138C78 138 123 117 134.5 117C146 117 245.5 138 245.5 138" />
<path d="M191 117.5C191 117.5 236.115 108 243.635 108C251.154 108 300.519 117.5 300.519 117.5" />
<circle cx="109" cy="52" r="30.5" />
<circle cx="108.648" cy="51.6477" r="42.392"  transform="rotate(103.37 108.648 51.6477)"  stroke-dasharray="40 50"/>
</svg>