<svg xmlns="http://www.w3.org/2000/svg" version="1.1" width="50" height="35" style="overflow: hidden; background: transparent; border: none;"><defs></defs><g id="two-609" transform="matrix(1 0 0 1 0 0)" opacity="1"><g id="two-617" transform="matrix(1 0 0 1 2 -5)" opacity="1"><path transform="matrix(1 0 0 1 22.5 22.5)" id="two-610" d="M -2.5 -2.5 L 2.5 -2.5 L 2.5 2.5 L -2.5 2.5 Z " fill="#fff" stroke="undefined" stroke-width="1" stroke-opacity="1" fill-opacity="1" visibility="visible" stroke-linecap="butt" stroke-linejoin="miter" stroke-miterlimit="4"></path><path transform="matrix(1 0 0 1 5 22.5)" id="two-611" d="M -5 -2.5 L 5 -2.5 L 5 2.5 L -5 2.5 Z " fill="#fff" stroke="undefined" stroke-width="1" stroke-opacity="1" fill-opacity="1" visibility="visible" stroke-linecap="butt" stroke-linejoin="miter" stroke-miterlimit="4"></path><path transform="matrix(1 0 0 1 12.5 17.5)" id="two-612" d="M -2.5 -7.5 L 2.5 -7.5 L 2.5 7.5 L -2.5 7.5 Z " fill="#fff" stroke="undefined" stroke-width="1" stroke-opacity="1" fill-opacity="1" visibility="visible" stroke-linecap="butt" stroke-linejoin="miter" stroke-miterlimit="4"></path><path transform="matrix(1 0 0 1 17.5 12.5)" id="two-613" d="M -7.5 -2.5 L 7.5 -2.5 L 7.5 2.5 L -7.5 2.5 Z " fill="#fff" stroke="undefined" stroke-width="1" stroke-opacity="1" fill-opacity="1" visibility="visible" stroke-linecap="butt" stroke-linejoin="miter" stroke-miterlimit="4"></path><path transform="matrix(1 0 0 1 27.5 32.5)" id="two-614" d="M -7.5 -2.5 L 7.5 -2.5 L 7.5 2.5 L -7.5 2.5 Z " fill="#fff" stroke="undefined" stroke-width="1" stroke-opacity="1" fill-opacity="1" visibility="visible" stroke-linecap="butt" stroke-linejoin="miter" stroke-miterlimit="4"></path><path transform="matrix(1 0 0 1 32.5 27.5)" id="two-615" d="M -2.5 -7.5 L 2.5 -7.5 L 2.5 7.5 L -2.5 7.5 Z " fill="#fff" stroke="undefined" stroke-width="1" stroke-opacity="1" fill-opacity="1" visibility="visible" stroke-linecap="butt" stroke-linejoin="miter" stroke-miterlimit="4"></path><path transform="matrix(1 0 0 1 37.5 22.5)" id="two-616" d="M -7.5 -2.5 L 7.5 -2.5 L 7.5 2.5 L -7.5 2.5 Z " fill="#fff" stroke="undefined" stroke-width="1" stroke-opacity="1" fill-opacity="1" visibility="visible" stroke-linecap="butt" stroke-linejoin="miter" stroke-miterlimit="4"></path></g></g></svg>