 <svg fill="#fbf5f3" xmlns="http://www.w3.org/2000/svg"
         width="18" height="18"
        viewBox="0 0 118.2 116.32">
        <rect class="a" x="34.72" y="35.83" width="46.99"
          height="45.48" />
        <rect class="a" x="53.72" y="-22.24" width="10.13"
          height="86.65"
          transform="translate(37.7 79.87) rotate(-90)" />
        <rect class="a" x="77.47" width="9.57" height="24.51"
          transform="translate(164.5 24.51) rotate(180)" />
        <rect class="a" x="54.79" width="9.57" height="24.51"
          transform="translate(119.15 24.51) rotate(180)" />
        <rect class="a" x="32.12" width="9.57" height="24.51"
          transform="translate(73.81 24.51) rotate(180)" />
        <rect class="a" x="15.57" y="18.46" width="10.58"
          height="79.04"
          transform="translate(41.72 115.97) rotate(180)" />
        <rect class="a" x="7.47" y="22.79" width="9.57"
          height="24.51"
          transform="translate(47.3 22.79) rotate(90)" />
        <rect class="a" x="7.47" y="45.46" width="9.57"
          height="24.51"
          transform="translate(69.98 45.46) rotate(90)" />
        <rect class="a" x="7.47" y="68.14" width="9.57"
          height="24.51"
          transform="translate(92.65 68.14) rotate(90)" />
        <rect class="a" x="53.15" y="52.42" width="10.9"
          height="86.4"
          transform="translate(154.22 37.03) rotate(90)" />
        <rect class="a" x="31.49" y="91.81" width="9.57"
          height="24.51" />
        <rect class="a" x="54.16" y="91.81" width="9.57"
          height="24.51" />
        <rect class="a" x="76.83" y="91.81" width="9.57"
          height="24.51" />
        <rect class="a" x="92.05" y="18.51" width="9.87"
          height="79.04" />
        <rect class="a" x="101.16" y="68.71" width="9.57"
          height="24.51"
          transform="translate(24.98 186.91) rotate(-90)" />
        <rect class="a" x="101.16" y="46.04" width="9.57"
          height="24.51"
          transform="translate(47.65 164.24) rotate(-90)" />
        <rect class="a" x="101.16" y="23.37" width="9.57"
          height="24.51"
          transform="translate(70.32 141.56) rotate(-90)" />
      </svg>