<svg stroke="#546a90" transform="scale(1.2)" width="121" height="114" viewBox="0 0 121 114" fill="none" xmlns="http://www.w3.org/2000/svg">
<path d="M22.7852 24.775L23.3837 35.0533L32.2777 31.5679M50.3977 31.9722C50.3977 31.9722 60.1762 27.8029 69.6357 32.36M99.1355 31.0313C106.593 36.2887 105.771 56.4276 105.771 56.4276M43.5618 8.14424L38.3537 18.9552L46.1791 18.84M13.9868 49.9512L17.9226 59.0621M31.9165 83.0084L23.3579 78.8853M38.7125 58.5326L36.8778 55.4287M27.8851 52.2066L33.0078 50.7894M33.3697 75.3835L36.4736 73.5488M47.2022 73.1673L50.5395 72M46.2488 84.3629L43.5461 83.0609M61.5479 90.623L61.949 87.4863M76.2515 71.6217L79.1219 69.1195M66.4269 57.4538L59.3019 59.5714M52.7291 53.6301L51.2626 45.1537M37.7489 38.6436L41.1881 29.2005M78.9347 86.7891L77.7674 83.4518M88.1146 72.3416L85.3789 68.8038M89.0515 60.0281L93.191 52.5874M98.9615 64.8022L98.6756 75.7643L107.954 68.0243"  stroke-width="1.2"/>
<path d="M85.2575 90.945L94.2008 90.8134M59.6277 96.913L69.0873 101.47M106.123 49.9371L110.463 40.928M105.472 51.2885L98.8659 43.1114"  stroke-width="1.2"/>
<path d="M47.2978 94.8581C47.2978 94.8581 91.0938 107.631 104.301 62.9345M47.2978 94.8581C47.2978 94.8581 104.627 100.276 84.8164 45.778M47.2978 94.8581C47.2978 94.8581 97.9556 87.6273 63.0073 53.0315M47.2978 94.8581C47.2978 94.8581 46.933 94.6402 46.2847 94.2196M48.7667 12.3166C-14.8748 51.5776 38.1309 88.9301 46.2847 94.2196M51.0691 92.7899C51.0691 92.7899 34.2377 73.5817 61.0575 42.1023M45.2915 34.5072C-0.18099 59.7758 46.2847 94.2196 46.2847 94.2196M46.2847 94.2196C46.2847 94.2196 17.7354 76.7317 42.6844 54.896"  stroke-width="1.2"/>
</svg>
