<svg xmlns="http://www.w3.org/2000/svg" version="1.1" width="35" height="50" style="overflow: hidden; background: transparent; border: none;"><defs></defs><g id="two-299" transform="matrix(1 0 0 1 0 0)" opacity="1"><g id="two-308" transform="matrix(0.3 0 0 0.3 5 5)" opacity="1"><path transform="matrix(1 0 0 1 58 6)" id="two-300" d="M -6 -6 L 6 -6 L 6 6 L -6 6 Z " fill="orchid" stroke="undefined" stroke-width="1" stroke-opacity="1" fill-opacity="1" visibility="visible" stroke-linecap="butt" stroke-linejoin="miter" stroke-miterlimit="4"></path><path transform="matrix(1 0 0 1 45 30)" id="two-301" d="M -25 -10 L 25 -10 L 25 10 L -25 10 Z " fill="pink" stroke="undefined" stroke-width="1" stroke-opacity="1" fill-opacity="1" visibility="visible" stroke-linecap="butt" stroke-linejoin="miter" stroke-miterlimit="4"></path><path transform="matrix(1 0 0 1 35 40)" id="two-302" d="M -25 -10 L 25 -10 L 25 10 L -25 10 Z " fill="pink" stroke="undefined" stroke-width="1" stroke-opacity="1" fill-opacity="1" visibility="visible" stroke-linecap="butt" stroke-linejoin="miter" stroke-miterlimit="4"></path><path transform="matrix(1 0 0 1 35 57.5)" id="two-303" d="M -25 -7.5 L 25 -7.5 L 25 7.5 L -25 7.5 Z " fill="orchid" stroke="undefined" stroke-width="1" stroke-opacity="1" fill-opacity="1" visibility="visible" stroke-linecap="butt" stroke-linejoin="miter" stroke-miterlimit="4"></path><path transform="matrix(1 0 0 1 50 60)" id="two-304" d="M -20 -20 L 20 -20 L 20 20 L -20 20 Z " fill="orchid" stroke="undefined" stroke-width="1" stroke-opacity="1" fill-opacity="1" visibility="visible" stroke-linecap="butt" stroke-linejoin="miter" stroke-miterlimit="4"></path><path transform="matrix(1 0 0 1 42.5 97.5)" id="two-305" d="M -12.5 -17.5 L 12.5 -17.5 L 12.5 17.5 L -12.5 17.5 Z " fill="#dd00aa" stroke="undefined" stroke-width="1" stroke-opacity="1" fill-opacity="1" visibility="visible" stroke-linecap="butt" stroke-linejoin="miter" stroke-miterlimit="4"></path><path transform="matrix(1 0 0 1 13 80)" id="two-306" d="M -5 -5 L 5 -5 L 5 5 L -5 5 Z " fill="orchid" stroke="undefined" stroke-width="1" stroke-opacity="1" fill-opacity="1" visibility="visible" stroke-linecap="butt" stroke-linejoin="miter" stroke-miterlimit="4"></path><path transform="matrix(1 0 0 1 51.5 61.5)" id="two-307" d="M -6.5 -6.5 L 6.5 -6.5 L 6.5 6.5 L -6.5 6.5 Z " fill="black" stroke="undefined" stroke-width="1" stroke-opacity="1" fill-opacity="1" visibility="visible" stroke-linecap="butt" stroke-linejoin="miter" stroke-miterlimit="4"></path></g></g></svg>
