<svg xmlns="http://www.w3.org/2000/svg" version="1.1" xmlns:xlink="http://www.w3.org/1999/xlink" xmlns:svgjs="http://svgjs.com/svgjs" width="18" height="18"><svg xmlns="http://www.w3.org/2000/svg" width="18" height="18" viewBox="0 0 122.81 122.35"><rect class="a" x="37.69" y="39.28" width="46.99" height="45.48" transform="translate(-25.94 61.43) rotate(-45)"></rect><rect class="a" x="30.01" y="-8.21" width="10.13" height="86.65" transform="translate(35.05 84.74) rotate(-135)"></rect><rect class="a" x="40.64" y="0.02" width="9.57" height="24.51" transform="translate(86.23 -11.16) rotate(135)"></rect><rect class="a" x="24.61" y="16.05" width="9.57" height="24.51" transform="translate(70.2 27.54) rotate(135)"></rect><rect class="a" x="8.58" y="32.09" width="9.57" height="24.51" transform="translate(54.17 66.25) rotate(135)"></rect><rect class="a" x="29.06" y="48.5" width="10.58" height="79.04" transform="translate(120.88 125.97) rotate(135)"></rect><rect class="a" x="7.27" y="65.63" width="9.57" height="24.51" transform="translate(58.6 14.29) rotate(45)"></rect><rect class="a" x="23.3" y="81.66" width="9.57" height="24.51" transform="translate(74.64 7.65) rotate(45)"></rect><rect class="a" x="39.33" y="97.69" width="9.57" height="24.51" transform="translate(90.67 1.01) rotate(45)"></rect><rect class="a" x="82.2" y="44.75" width="10.9" height="86.4" transform="translate(87.86 -36.22) rotate(45)"></rect><rect class="a" x="73.05" y="97.46" width="9.57" height="24.51" transform="translate(-54.78 87.17) rotate(-45)"></rect><rect class="a" x="89.08" y="81.42" width="9.57" height="24.51" transform="translate(-38.75 93.81) rotate(-45)"></rect><rect class="a" x="105.11" y="65.39" width="9.57" height="24.51" transform="translate(-22.72 100.45) rotate(-45)"></rect><rect class="a" x="83.28" y="-5.29" width="9.87" height="79.04" transform="translate(1.63 72.4) rotate(-45)"></rect><rect class="a" x="105.98" y="31.86" width="9.57" height="24.51" transform="translate(157.89 153.63) rotate(-135)"></rect><rect class="a" x="89.95" y="15.82" width="9.57" height="24.51" transform="translate(141.86 114.92) rotate(-135)"></rect><rect class="a" x="73.92" y="-0.21" width="9.57" height="24.51" transform="translate(125.83 76.22) rotate(-135)"></rect></svg><style>@media (prefers-color-scheme: light) { :root { filter: none; } }
@media (prefers-color-scheme: dark) { :root { filter: invert(100%); } }
</style></svg>