<svg xmlns="http://www.w3.org/2000/svg" version="1.1" width="18" height="18" viewBox="0 0 30 70" style="overflow: hidden; background: transparent;"><defs></defs><g id="two-0" transform="matrix(1 0 0 1 0 0)" opacity="1"><path transform="matrix(1 0 0 1 5 15)" id="two-1" d="M -5 -15 L 5 -15 L 5 15 L -5 15 Z " fill="#fbf5f3" stroke="undefined" stroke-width="1" stroke-opacity="1" fill-opacity="1" visibility="visible" stroke-linecap="butt" stroke-linejoin="miter" stroke-miterlimit="4"></path><path transform="matrix(1 0 0 1 30 22.5)" id="two-2" d="M -5 -12.5 L 5 -12.5 L 5 12.5 L -5 12.5 Z " fill="#fbf5f3" stroke="undefined" stroke-width="1" stroke-opacity="1" fill-opacity="1" visibility="visible" stroke-linecap="butt" stroke-linejoin="miter" stroke-miterlimit="4"></path><path transform="matrix(1 0 0 1 12.5 5)" id="two-3" d="M -12.5 -5 L 12.5 -5 L 12.5 5 L -12.5 5 Z " fill="#fbf5f3" stroke="undefined" stroke-width="1" stroke-opacity="1" fill-opacity="1" visibility="visible" stroke-linecap="butt" stroke-linejoin="miter" stroke-miterlimit="4"></path><path transform="matrix(1 0 0 1 15 30)" id="two-4" d="M -15 -5 L 15 -5 L 15 5 L -15 5 Z " fill="#fbf5f3" stroke="undefined" stroke-width="1" stroke-opacity="1" fill-opacity="1" visibility="visible" stroke-linecap="butt" stroke-linejoin="miter" stroke-miterlimit="4"></path><path transform="matrix(1 0 0 1 15 45)" id="two-5" d="M -5 -20 L 5 -20 L 5 20 L -5 20 Z " fill="#fbf5f3" stroke="undefined" stroke-width="1" stroke-opacity="1" fill-opacity="1" visibility="visible" stroke-linecap="butt" stroke-linejoin="miter" stroke-miterlimit="4"></path><path transform="matrix(1 0 0 1 19 51)" id="two-6" d="M -9 -4 L 9 -4 L 9 4 L -9 4 Z " fill="#fbf5f3" stroke="undefined" stroke-width="1" stroke-opacity="1" fill-opacity="1" visibility="visible" stroke-linecap="butt" stroke-linejoin="miter" stroke-miterlimit="4"></path><path transform="matrix(1 0 0 1 21 66)" id="two-7" d="M -11 -4 L 11 -4 L 11 4 L -11 4 Z " fill="#fbf5f3" stroke="undefined" stroke-width="1" stroke-opacity="1" fill-opacity="1" visibility="visible" stroke-linecap="butt" stroke-linejoin="miter" stroke-miterlimit="4"></path></g></svg>