<svg xmlns="http://www.w3.org/2000/svg" version="1.1" width="23" height="23" style="overflow: hidden; background: transparent; border: none;"><defs></defs><g id="two-48" transform="matrix(1 0 0 1 0 0)" opacity="1"><g id="two-63" transform="matrix(0.4 0 0 0.4 0 0)" opacity="1"><path transform="matrix(1 0 0 1 30 30)" id="two-49" d="M -10 -10 L 10 -10 L 10 10 L -10 10 Z " fill="#fff" stroke="undefined" stroke-width="1" stroke-opacity="1" fill-opacity="1" visibility="visible" stroke-linecap="butt" stroke-linejoin="miter" stroke-miterlimit="4"></path><path transform="matrix(1 0 0 1 30 30)" id="two-50" d="M -15 -15 L 15 -15 L 15 15 L -15 15 Z " fill="transparent" stroke="#ffff" stroke-width="3" stroke-opacity="1" fill-opacity="1" visibility="visible" stroke-linecap="butt" stroke-linejoin="miter" stroke-miterlimit="4"></path><path transform="matrix(1 0 0 1 10 20.5)" id="two-51" d="M -4 -2.5 L 4 -2.5 L 4 2.5 L -4 2.5 Z " fill="#fff" stroke="undefined" stroke-width="1" stroke-opacity="1" fill-opacity="1" visibility="visible" stroke-linecap="butt" stroke-linejoin="miter" stroke-miterlimit="4"></path><path transform="matrix(1 0 0 1 10 30.5)" id="two-52" d="M -4 -2.5 L 4 -2.5 L 4 2.5 L -4 2.5 Z " fill="#fff" stroke="undefined" stroke-width="1" stroke-opacity="1" fill-opacity="1" visibility="visible" stroke-linecap="butt" stroke-linejoin="miter" stroke-miterlimit="4"></path><path transform="matrix(1 0 0 1 10 40.5)" id="two-53" d="M -4 -2.5 L 4 -2.5 L 4 2.5 L -4 2.5 Z " fill="#fff" stroke="undefined" stroke-width="1" stroke-opacity="1" fill-opacity="1" visibility="visible" stroke-linecap="butt" stroke-linejoin="miter" stroke-miterlimit="4"></path><path transform="matrix(1 0 0 1 49 20.5)" id="two-54" d="M -4 -2.5 L 4 -2.5 L 4 2.5 L -4 2.5 Z " fill="#fff" stroke="undefined" stroke-width="1" stroke-opacity="1" fill-opacity="1" visibility="visible" stroke-linecap="butt" stroke-linejoin="miter" stroke-miterlimit="4"></path><path transform="matrix(1 0 0 1 49 30.5)" id="two-55" d="M -4 -2.5 L 4 -2.5 L 4 2.5 L -4 2.5 Z " fill="#fff" stroke="undefined" stroke-width="1" stroke-opacity="1" fill-opacity="1" visibility="visible" stroke-linecap="butt" stroke-linejoin="miter" stroke-miterlimit="4"></path><path transform="matrix(1 0 0 1 49 40.5)" id="two-56" d="M -4 -2.5 L 4 -2.5 L 4 2.5 L -4 2.5 Z " fill="#fff" stroke="undefined" stroke-width="1" stroke-opacity="1" fill-opacity="1" visibility="visible" stroke-linecap="butt" stroke-linejoin="miter" stroke-miterlimit="4"></path><path transform="matrix(1 0 0 1 20.5 11)" id="two-57" d="M -2.5 -4 L 2.5 -4 L 2.5 4 L -2.5 4 Z " fill="#fff" stroke="undefined" stroke-width="1" stroke-opacity="1" fill-opacity="1" visibility="visible" stroke-linecap="butt" stroke-linejoin="miter" stroke-miterlimit="4"></path><path transform="matrix(1 0 0 1 30.5 11)" id="two-58" d="M -2.5 -4 L 2.5 -4 L 2.5 4 L -2.5 4 Z " fill="#fff" stroke="undefined" stroke-width="1" stroke-opacity="1" fill-opacity="1" visibility="visible" stroke-linecap="butt" stroke-linejoin="miter" stroke-miterlimit="4"></path><path transform="matrix(1 0 0 1 40.5 11)" id="two-59" d="M -2.5 -4 L 2.5 -4 L 2.5 4 L -2.5 4 Z " fill="#fff" stroke="undefined" stroke-width="1" stroke-opacity="1" fill-opacity="1" visibility="visible" stroke-linecap="butt" stroke-linejoin="miter" stroke-miterlimit="4"></path><path transform="matrix(1 0 0 1 20.5 49)" id="two-60" d="M -2.5 -4 L 2.5 -4 L 2.5 4 L -2.5 4 Z " fill="#fff" stroke="undefined" stroke-width="1" stroke-opacity="1" fill-opacity="1" visibility="visible" stroke-linecap="butt" stroke-linejoin="miter" stroke-miterlimit="4"></path><path transform="matrix(1 0 0 1 30.5 49)" id="two-61" d="M -2.5 -4 L 2.5 -4 L 2.5 4 L -2.5 4 Z " fill="#fff" stroke="undefined" stroke-width="1" stroke-opacity="1" fill-opacity="1" visibility="visible" stroke-linecap="butt" stroke-linejoin="miter" stroke-miterlimit="4"></path><path transform="matrix(1 0 0 1 40.5 49)" id="two-62" d="M -2.5 -4 L 2.5 -4 L 2.5 4 L -2.5 4 Z " fill="#fff" stroke="undefined" stroke-width="1" stroke-opacity="1" fill-opacity="1" visibility="visible" stroke-linecap="butt" stroke-linejoin="miter" stroke-miterlimit="4"></path></g></g></svg>
