<svg xmlns="http://www.w3.org/2000/svg" version="1.1" width="20" height="26" style="overflow: hidden; background: transparent; border: none;"><defs></defs><g id="two-77" transform="matrix(1 0 0 1 0 0)" opacity="1"><g id="two-83" transform="matrix(0.4 0 0 0.4 0 0)" opacity="1"><path transform="matrix(1 0 0 1 22.5 52.5)" id="two-78" d="M -2.5 -2.5 L 2.5 -2.5 L 2.5 2.5 L -2.5 2.5 Z " fill="#fff" stroke="undefined" stroke-width="1" stroke-opacity="1" fill-opacity="1" visibility="visible" stroke-linecap="butt" stroke-linejoin="miter" stroke-miterlimit="4"></path><path transform="matrix(1 0 0 1 22.5 42.5)" id="two-79" d="M -2.5 -2.5 L 2.5 -2.5 L 2.5 2.5 L -2.5 2.5 Z " fill="#fff" stroke="undefined" stroke-width="1" stroke-opacity="1" fill-opacity="1" visibility="visible" stroke-linecap="butt" stroke-linejoin="miter" stroke-miterlimit="4"></path><path transform="matrix(1 0 0 1 27.5 37.5)" id="two-80" d="M -7.5 -2.5 L 7.5 -2.5 L 7.5 2.5 L -7.5 2.5 Z " fill="#fff" stroke="undefined" stroke-width="1" stroke-opacity="1" fill-opacity="1" visibility="visible" stroke-linecap="butt" stroke-linejoin="miter" stroke-miterlimit="4"></path><path transform="matrix(1 0 0 1 32.5 27.5)" id="two-81" d="M -2.5 -7.5 L 2.5 -7.5 L 2.5 7.5 L -2.5 7.5 Z " fill="#fff" stroke="undefined" stroke-width="1" stroke-opacity="1" fill-opacity="1" visibility="visible" stroke-linecap="butt" stroke-linejoin="miter" stroke-miterlimit="4"></path><path transform="matrix(1 0 0 1 22.5 22.5)" id="two-82" d="M -7.5 -2.5 L 7.5 -2.5 L 7.5 2.5 L -7.5 2.5 Z " fill="#fff" stroke="undefined" stroke-width="1" stroke-opacity="1" fill-opacity="1" visibility="visible" stroke-linecap="butt" stroke-linejoin="miter" stroke-miterlimit="4"></path></g></g></svg>
